<?xml version="1.0" encoding="UTF-8"?>
<svg width="1200pt" height="1200pt" version="1.1" viewBox="0 0 1200 1200" xmlns="http://www.w3.org/2000/svg">
 <path d="m938.4 872.4c-4.8008-2.3984-12-1.1992-15.602 3.6016l-78 85.199c-4.8008 4.8008-13.199 6-19.199 1.1992l-116.4-104.4c-4.8008-3.6016-12-3.6016-16.801 0l-74.398 54c-4.8008 3.6016-10.801 3.6016-15.602 1.1992l-138-92.398c-10.801-7.1992-1.1992-22.801 12-20.398l123.6 25.199c3.6016 1.1992 8.3984 0 12-3.6016l94.801-79.199c4.8008-3.6016 10.801-4.8008 15.602-1.1992l110.4 70.801c4.8008 3.6016 13.199 2.3984 18-2.3984l79.199-92.398c3.6016-3.6016 8.3984-6 13.199-4.8008l103.2 24v-132c0-28.801-16.801-55.199-43.199-67.199-28.801-13.199-58.801-25.199-91.199-36v-160.8c-1.1992-171.6-140.4-310.8-312-310.8s-310.8 139.2-310.8 310.8v162c-32.398 10.801-62.398 22.801-91.199 36-26.398 12-43.199 38.398-43.199 67.199v489.6c0 40.801 33.602 74.398 74.398 74.398h744c40.801 0 74.398-33.602 74.398-74.398l0.003906-170.4zm-477.6-531.6c0-76.801 62.398-139.2 139.2-139.2s139.2 62.398 139.2 139.2v122.4c-92.398-13.199-186-13.199-279.6 0l0.003906-122.4z"/>
</svg>
